<?xml version="1.0" standalone="no"?>
<!DOCTYPE svg PUBLIC "-//W3C//DTD SVG 20010904//EN"
 "http://www.w3.org/TR/2001/REC-SVG-20010904/DTD/svg10.dtd">
<svg version="1.0" xmlns="http://www.w3.org/2000/svg"
 width="300.000000pt" height="300.000000pt" viewBox="0 0 300.000000 300.000000"
 preserveAspectRatio="xMidYMid meet">
<metadata>
Created by potrace 1.14, written by Peter Selinger 2001-2017
</metadata>
<g transform="translate(0.000000,300.000000) scale(0.100000,-0.100000)"
fill="#000000" stroke="none">
<path d="M838 2739 c-75 -18 -181 -80 -243 -143 -114 -117 -155 -235 -155
-448 l0 -129 -26 20 c-64 50 -154 4 -154 -79 0 -39 6 -47 106 -150 165 -169
180 -170 336 -12 59 59 112 120 118 135 14 39 4 72 -32 102 -36 31 -70 32
-115 4 l-35 -22 4 149 c3 138 5 153 31 206 33 68 90 121 166 156 51 24 70 26
221 30 161 4 166 5 193 30 39 37 38 93 -2 133 l-29 29 -174 -1 c-95 -1 -190
-5 -210 -10z"/>
<path d="M1703 2743 c-12 -2 -34 -18 -48 -34 l-25 -31 0 -511 c0 -470 2 -514
18 -533 35 -44 40 -44 557 -44 538 0 538 0 563 55 8 18 12 113 12 319 0 276
-1 295 -20 318 -31 41 -71 52 -114 34 -60 -25 -66 -52 -66 -306 l0 -220 -380
0 -380 0 0 375 0 375 430 0 c462 0 479 2 514 51 38 54 6 130 -62 149 -36 10
-949 13 -999 3z"/>
<path d="M335 1372 c-32 -11 -51 -26 -64 -49 -8 -15 -11 -167 -11 -527 l0
-506 29 -32 29 -33 517 0 517 0 29 33 29 32 0 299 0 299 -25 30 c-33 39 -74
48 -115 27 -54 -28 -60 -58 -60 -305 l0 -220 -377 2 -378 3 0 375 0 375 447 3
446 2 31 29 c42 39 43 88 2 133 l-29 33 -499 2 c-274 1 -507 -2 -518 -5z"/>
<path d="M2492 1291 c-34 -9 -250 -228 -257 -262 -18 -81 105 -155 156 -93 27
32 31 12 27 -128 -3 -128 -6 -149 -30 -200 -31 -66 -90 -127 -156 -159 -42
-20 -67 -24 -217 -29 -208 -6 -235 -18 -235 -100 0 -82 38 -100 217 -100 229
0 341 38 459 155 114 112 154 227 154 443 0 72 3 132 7 132 3 0 15 -7 25 -16
46 -42 139 -8 153 56 10 47 -18 91 -126 196 -103 99 -131 116 -177 105z"/>
</g>
</svg>
